<?xml version="1.0" encoding="UTF-8" standalone="no"?>
<!DOCTYPE svg PUBLIC "-//W3C//DTD SVG 1.1//EN" "http://www.w3.org/Graphics/SVG/1.1/DTD/svg11.dtd">
<svg width="100%" height="100%" viewBox="0 0 660 128" version="1.1" xmlns="http://www.w3.org/2000/svg" xmlns:xlink="http://www.w3.org/1999/xlink" xml:space="preserve" xmlns:serif="http://www.serif.com/" style="fill-rule:evenodd;clip-rule:evenodd;stroke-linejoin:round;stroke-miterlimit:2;">
    <g transform="matrix(0.64,0,0,0.64,-48.3984,-343.161)">
        <g transform="matrix(0.576009,0,0,0.576009,-126.05,-290.69)">
            <g transform="matrix(0.471218,0,0,0.471218,-237.816,1160.97)">
                <g transform="matrix(0.689758,0,0,1,699.641,85.6244)">
                    <path d="M794.561,1230.26L1611.81,1230.26L1611.81,716.431L1290.19,716.431L1290.19,497.037L794.561,497.037L794.561,1230.26Z" style="fill:rgb(235,235,235);"/>
                </g>
                <g transform="matrix(0.598476,1.46584e-16,-1.46584e-16,0.598476,1462.68,335.902)">
                    <path d="M245.196,417.67L576.721,749.195L245.196,749.195L245.196,417.67Z" style="fill:rgb(49,199,84);"/>
                </g>
            </g>
            <g transform="matrix(1,0,0,1,238.863,409.08)">
                <g transform="matrix(175,0,0,175,405.937,1275.1)">
                    <path d="M0.363,-0.559C0.411,-0.559 0.449,-0.547 0.478,-0.523C0.507,-0.5 0.528,-0.467 0.541,-0.424C0.554,-0.381 0.561,-0.331 0.561,-0.273C0.561,-0.217 0.553,-0.168 0.537,-0.124C0.521,-0.081 0.497,-0.047 0.466,-0.022C0.436,0.003 0.397,0.015 0.352,0.015C0.297,0.015 0.252,-0.004 0.218,-0.043L0.218,0.209L0.083,0.224L0.083,-0.543L0.202,-0.543L0.209,-0.477C0.23,-0.505 0.254,-0.526 0.281,-0.539C0.308,-0.552 0.335,-0.559 0.363,-0.559ZM0.323,-0.457C0.301,-0.457 0.281,-0.45 0.263,-0.436C0.246,-0.423 0.231,-0.406 0.218,-0.385L0.218,-0.142C0.23,-0.124 0.244,-0.11 0.26,-0.101C0.276,-0.092 0.293,-0.087 0.313,-0.087C0.348,-0.087 0.374,-0.101 0.393,-0.13C0.411,-0.159 0.42,-0.206 0.42,-0.271C0.42,-0.317 0.416,-0.354 0.409,-0.381C0.402,-0.408 0.391,-0.427 0.377,-0.439C0.362,-0.451 0.344,-0.457 0.323,-0.457Z" style="fill-rule:nonzero;"/>
                </g>
                <g transform="matrix(175,0,0,175,513.629,1275.1)">
                    <path d="M0.088,-0L0.088,-0.094L0.164,-0.094L0.164,-0.45L0.088,-0.45L0.088,-0.543L0.267,-0.543L0.292,-0.419C0.312,-0.465 0.337,-0.499 0.367,-0.523C0.397,-0.546 0.435,-0.558 0.481,-0.558C0.498,-0.558 0.513,-0.556 0.527,-0.554C0.54,-0.551 0.553,-0.548 0.566,-0.543L0.525,-0.429C0.515,-0.432 0.504,-0.434 0.495,-0.436C0.485,-0.437 0.474,-0.438 0.462,-0.438C0.425,-0.438 0.392,-0.423 0.364,-0.394C0.336,-0.365 0.315,-0.325 0.299,-0.275L0.299,-0.094L0.408,-0.094L0.408,-0L0.088,-0ZM0.451,-0.331L0.451,-0.475L0.47,-0.543L0.566,-0.543L0.542,-0.331L0.451,-0.331Z" style="fill-rule:nonzero;"/>
                </g>
                <g transform="matrix(175,0,0,175,621.322,1275.1)">
                    <path d="M0.308,-0.559C0.362,-0.559 0.408,-0.547 0.446,-0.523C0.483,-0.5 0.512,-0.466 0.532,-0.423C0.551,-0.381 0.561,-0.33 0.561,-0.273C0.561,-0.214 0.551,-0.163 0.531,-0.12C0.511,-0.077 0.483,-0.043 0.445,-0.02C0.407,0.004 0.362,0.015 0.308,0.015C0.254,0.015 0.208,0.004 0.171,-0.019C0.133,-0.042 0.104,-0.075 0.084,-0.118C0.064,-0.161 0.054,-0.212 0.054,-0.272C0.054,-0.329 0.064,-0.379 0.084,-0.422C0.104,-0.465 0.133,-0.498 0.171,-0.522C0.209,-0.547 0.254,-0.559 0.308,-0.559ZM0.308,-0.456C0.27,-0.456 0.242,-0.442 0.223,-0.412C0.205,-0.382 0.195,-0.335 0.195,-0.272C0.195,-0.208 0.205,-0.161 0.223,-0.131C0.242,-0.101 0.27,-0.087 0.308,-0.087C0.346,-0.087 0.374,-0.101 0.392,-0.131C0.411,-0.161 0.42,-0.208 0.42,-0.273C0.42,-0.336 0.411,-0.382 0.392,-0.412C0.374,-0.442 0.346,-0.456 0.308,-0.456Z" style="fill-rule:nonzero;"/>
                </g>
                <g transform="matrix(175,0,0,175,729.014,1275.1)">
                    <path d="M0.469,-0.559C0.492,-0.559 0.512,-0.554 0.528,-0.544C0.545,-0.534 0.557,-0.518 0.566,-0.495C0.575,-0.473 0.58,-0.442 0.58,-0.403L0.58,-0L0.461,-0L0.461,-0.386C0.461,-0.41 0.459,-0.428 0.456,-0.438C0.452,-0.448 0.443,-0.453 0.429,-0.453C0.418,-0.453 0.407,-0.45 0.395,-0.443C0.384,-0.437 0.372,-0.425 0.359,-0.408L0.359,-0L0.257,-0L0.257,-0.386C0.257,-0.41 0.255,-0.428 0.252,-0.438C0.248,-0.448 0.239,-0.453 0.225,-0.453C0.214,-0.453 0.202,-0.45 0.191,-0.443C0.179,-0.437 0.168,-0.425 0.155,-0.408L0.155,-0L0.036,-0L0.036,-0.543L0.137,-0.543L0.146,-0.487C0.162,-0.509 0.179,-0.527 0.197,-0.54C0.214,-0.552 0.236,-0.559 0.261,-0.559C0.281,-0.559 0.299,-0.554 0.315,-0.543C0.331,-0.533 0.342,-0.516 0.349,-0.492C0.365,-0.512 0.383,-0.528 0.402,-0.54C0.421,-0.552 0.444,-0.559 0.469,-0.559Z" style="fill-rule:nonzero;"/>
                </g>
                <g transform="matrix(175,0,0,175,836.706,1275.1)">
                    <path d="M0.395,-0.543L0.395,-0.096L0.538,-0.096L0.538,-0L0.101,-0L0.101,-0.096L0.259,-0.096L0.259,-0.447L0.106,-0.447L0.106,-0.543L0.395,-0.543ZM0.307,-0.817C0.332,-0.817 0.352,-0.809 0.368,-0.794C0.383,-0.778 0.391,-0.759 0.391,-0.737C0.391,-0.713 0.383,-0.694 0.368,-0.679C0.352,-0.663 0.332,-0.655 0.307,-0.655C0.282,-0.655 0.262,-0.663 0.246,-0.679C0.231,-0.694 0.223,-0.713 0.223,-0.737C0.223,-0.759 0.231,-0.778 0.246,-0.794C0.262,-0.809 0.282,-0.817 0.307,-0.817Z" style="fill-rule:nonzero;"/>
                </g>
                <g transform="matrix(175,0,0,175,944.399,1275.1)">
                    <path d="M0.289,-0.085C0.321,-0.085 0.347,-0.09 0.366,-0.101C0.385,-0.112 0.395,-0.128 0.395,-0.148C0.395,-0.161 0.392,-0.173 0.385,-0.182C0.379,-0.191 0.367,-0.2 0.348,-0.208C0.33,-0.216 0.302,-0.225 0.265,-0.235C0.23,-0.244 0.2,-0.255 0.174,-0.268C0.148,-0.281 0.127,-0.298 0.113,-0.319C0.098,-0.34 0.091,-0.366 0.091,-0.398C0.091,-0.43 0.1,-0.458 0.118,-0.482C0.135,-0.506 0.161,-0.525 0.195,-0.538C0.229,-0.552 0.269,-0.559 0.316,-0.559C0.363,-0.559 0.404,-0.553 0.439,-0.54C0.473,-0.528 0.503,-0.513 0.528,-0.495L0.473,-0.412C0.451,-0.426 0.427,-0.438 0.402,-0.446C0.376,-0.455 0.349,-0.459 0.32,-0.459C0.288,-0.459 0.264,-0.455 0.25,-0.445C0.235,-0.436 0.228,-0.423 0.228,-0.407C0.228,-0.396 0.232,-0.386 0.239,-0.378C0.247,-0.37 0.26,-0.362 0.279,-0.355C0.298,-0.347 0.326,-0.338 0.362,-0.328C0.397,-0.318 0.428,-0.307 0.454,-0.294C0.48,-0.281 0.501,-0.264 0.515,-0.242C0.529,-0.221 0.537,-0.193 0.537,-0.158C0.537,-0.119 0.525,-0.086 0.502,-0.06C0.479,-0.035 0.449,-0.016 0.411,-0.003C0.374,0.009 0.333,0.015 0.29,0.015C0.238,0.015 0.194,0.008 0.155,-0.007C0.117,-0.021 0.085,-0.04 0.058,-0.063L0.128,-0.143C0.15,-0.126 0.174,-0.112 0.201,-0.101C0.228,-0.09 0.257,-0.085 0.289,-0.085Z" style="fill-rule:nonzero;"/>
                </g>
                <g transform="matrix(175,0,0,175,1052.09,1275.1)">
                    <path d="M0.198,-0.23C0.201,-0.196 0.209,-0.169 0.221,-0.148C0.234,-0.126 0.251,-0.111 0.271,-0.101C0.291,-0.091 0.313,-0.086 0.338,-0.086C0.364,-0.086 0.388,-0.09 0.411,-0.099C0.434,-0.107 0.457,-0.118 0.479,-0.133L0.536,-0.055C0.51,-0.034 0.48,-0.017 0.445,-0.004C0.41,0.009 0.371,0.015 0.329,0.015C0.271,0.015 0.221,0.003 0.181,-0.021C0.141,-0.045 0.11,-0.079 0.09,-0.122C0.069,-0.165 0.059,-0.215 0.059,-0.271C0.059,-0.325 0.069,-0.374 0.089,-0.417C0.109,-0.46 0.138,-0.495 0.176,-0.52C0.214,-0.546 0.26,-0.559 0.314,-0.559C0.364,-0.559 0.407,-0.548 0.443,-0.526C0.479,-0.504 0.507,-0.472 0.527,-0.431C0.547,-0.391 0.557,-0.341 0.557,-0.284C0.557,-0.275 0.557,-0.266 0.556,-0.256C0.556,-0.246 0.555,-0.238 0.554,-0.23L0.198,-0.23ZM0.314,-0.463C0.282,-0.463 0.255,-0.452 0.234,-0.428C0.213,-0.404 0.2,-0.367 0.197,-0.317L0.425,-0.317C0.425,-0.363 0.415,-0.399 0.397,-0.425C0.379,-0.45 0.351,-0.463 0.314,-0.463Z" style="fill-rule:nonzero;"/>
                </g>
                <g transform="matrix(175,0,0,175,1159.78,1275.1)">
                    <path d="M0.477,-0.622L0.538,-0.526L0.195,-0.322L0.538,-0.119L0.474,-0.022L0.078,-0.269L0.078,-0.374L0.477,-0.622Z" style="fill:rgb(49,199,84);fill-rule:nonzero;"/>
                </g>
                <g transform="matrix(175,0,0,175,1267.48,1275.1)">
                    <path d="M0.523,-0L0.364,-0L0.31,-0.377L0.251,-0L0.095,-0L0.009,-0.543L0.136,-0.543L0.183,-0.084L0.25,-0.474L0.375,-0.474L0.437,-0.084L0.484,-0.543L0.607,-0.543L0.523,-0Z" style="fill:rgb(49,199,84);fill-rule:nonzero;"/>
                </g>
                <g transform="matrix(175,0,0,175,1375.17,1275.1)">
                    <path d="M0.516,-0.143C0.516,-0.122 0.519,-0.107 0.525,-0.098C0.531,-0.088 0.541,-0.081 0.555,-0.076L0.526,0.014C0.497,0.011 0.472,0.004 0.452,-0.007C0.431,-0.019 0.415,-0.036 0.404,-0.059C0.384,-0.034 0.358,-0.016 0.327,-0.003C0.296,0.009 0.263,0.015 0.229,0.015C0.173,0.015 0.129,-0 0.097,-0.032C0.064,-0.063 0.048,-0.104 0.048,-0.154C0.048,-0.212 0.071,-0.257 0.116,-0.288C0.161,-0.319 0.226,-0.335 0.309,-0.335L0.384,-0.335L0.384,-0.364C0.384,-0.396 0.375,-0.42 0.355,-0.434C0.335,-0.449 0.306,-0.456 0.269,-0.456C0.252,-0.456 0.23,-0.454 0.204,-0.449C0.178,-0.444 0.151,-0.437 0.123,-0.428L0.091,-0.52C0.125,-0.533 0.16,-0.543 0.195,-0.549C0.23,-0.556 0.262,-0.559 0.291,-0.559C0.367,-0.559 0.423,-0.542 0.461,-0.51C0.498,-0.478 0.516,-0.432 0.516,-0.373L0.516,-0.143ZM0.273,-0.083C0.293,-0.083 0.314,-0.089 0.335,-0.1C0.356,-0.111 0.372,-0.128 0.384,-0.149L0.384,-0.255L0.331,-0.255C0.281,-0.255 0.245,-0.247 0.222,-0.23C0.2,-0.214 0.189,-0.191 0.189,-0.162C0.189,-0.137 0.196,-0.117 0.21,-0.103C0.225,-0.09 0.246,-0.083 0.273,-0.083Z" style="fill:rgb(49,199,84);fill-rule:nonzero;"/>
                </g>
                <g transform="matrix(175,0,0,175,1482.86,1275.1)">
                    <path d="M0.551,-0.03C0.531,-0.017 0.507,-0.006 0.478,0.003C0.449,0.011 0.418,0.015 0.385,0.015C0.318,0.015 0.268,-0.002 0.235,-0.036C0.201,-0.07 0.185,-0.116 0.185,-0.174L0.185,-0.447L0.067,-0.447L0.067,-0.543L0.185,-0.543L0.185,-0.663L0.32,-0.679L0.32,-0.543L0.499,-0.543L0.485,-0.447L0.32,-0.447L0.32,-0.174C0.32,-0.146 0.327,-0.125 0.34,-0.112C0.354,-0.099 0.376,-0.093 0.407,-0.093C0.426,-0.093 0.444,-0.095 0.46,-0.1C0.477,-0.104 0.491,-0.11 0.505,-0.118L0.551,-0.03Z" style="fill:rgb(49,199,84);fill-rule:nonzero;"/>
                </g>
                <g transform="matrix(175,0,0,175,1590.55,1275.1)">
                    <path d="M0.356,-0.093C0.38,-0.093 0.402,-0.098 0.423,-0.107C0.444,-0.115 0.464,-0.127 0.484,-0.14L0.546,-0.054C0.522,-0.034 0.493,-0.017 0.459,-0.004C0.425,0.009 0.389,0.015 0.35,0.015C0.293,0.015 0.245,0.004 0.204,-0.02C0.164,-0.044 0.133,-0.077 0.111,-0.12C0.089,-0.162 0.079,-0.212 0.079,-0.268C0.079,-0.324 0.09,-0.374 0.112,-0.418C0.134,-0.461 0.165,-0.496 0.206,-0.521C0.247,-0.546 0.296,-0.559 0.353,-0.559C0.391,-0.559 0.427,-0.553 0.458,-0.542C0.49,-0.531 0.519,-0.514 0.545,-0.492L0.485,-0.409C0.465,-0.423 0.444,-0.434 0.423,-0.441C0.401,-0.449 0.379,-0.453 0.357,-0.453C0.316,-0.453 0.284,-0.438 0.259,-0.409C0.234,-0.38 0.221,-0.333 0.221,-0.268C0.221,-0.226 0.227,-0.191 0.239,-0.166C0.25,-0.14 0.266,-0.122 0.287,-0.11C0.307,-0.099 0.33,-0.093 0.356,-0.093Z" style="fill:rgb(49,199,84);fill-rule:nonzero;"/>
                </g>
                <g transform="matrix(175,0,0,175,1698.24,1275.1)">
                    <path d="M0.218,-0.773L0.218,-0.482C0.24,-0.508 0.266,-0.527 0.294,-0.54C0.322,-0.552 0.352,-0.559 0.382,-0.559C0.432,-0.559 0.47,-0.545 0.495,-0.516C0.52,-0.488 0.533,-0.448 0.533,-0.397L0.533,-0L0.398,-0L0.398,-0.367C0.398,-0.4 0.393,-0.423 0.383,-0.437C0.372,-0.45 0.355,-0.457 0.331,-0.457C0.316,-0.457 0.302,-0.454 0.289,-0.447C0.275,-0.441 0.263,-0.432 0.251,-0.42C0.239,-0.409 0.228,-0.397 0.218,-0.383L0.218,-0L0.083,-0L0.083,-0.759L0.218,-0.773Z" style="fill:rgb(49,199,84);fill-rule:nonzero;"/>
                </g>
                <g transform="matrix(175,0,0,175,1805.94,1275.1)">
                    <path d="M0.139,-0.622L0.538,-0.375L0.538,-0.269L0.142,-0.022L0.078,-0.116L0.421,-0.322L0.078,-0.523L0.139,-0.622Z" style="fill:rgb(49,199,84);fill-rule:nonzero;"/>
                </g>
            </g>
        </g>
    </g>
</svg>
