<?xml version="1.0" encoding="UTF-8" standalone="no"?><!DOCTYPE svg PUBLIC "-//W3C//DTD SVG 1.1//EN" "http://www.w3.org/Graphics/SVG/1.1/DTD/svg11.dtd"><svg width="100%" height="100%" viewBox="0 0 64 83" version="1.1" xmlns="http://www.w3.org/2000/svg" xmlns:xlink="http://www.w3.org/1999/xlink" xml:space="preserve" xmlns:serif="http://www.serif.com/" style="fill-rule:evenodd;clip-rule:evenodd;stroke-linecap:round;stroke-miterlimit:1.5;"><g id="Eye"><g><path d="M16.156,48.436c-0,0 5.49,-10.798 16.16,-10.798c10.67,-0 15.713,10.84 15.713,10.84" style="fill:none;stroke:#000;stroke-width:3px;"/><path d="M48.013,48.507c-0,0 -5.49,10.799 -16.16,10.799c-10.67,-0 -15.714,-10.841 -15.714,-10.841" style="fill:none;stroke:#000;stroke-width:3px;"/></g><ellipse cx="32.084" cy="48.472" rx="5.192" ry="5.22" style="fill:none;stroke:#000;stroke-width:3px;stroke-linejoin:round;"/></g><g><path d="M0,82.922l63.75,-0l0,-58.11l-25.088,-0l0,-24.812l-38.662,0l0,82.922Z" style="fill:#ebebeb;"/><path d="M40.909,0.363l22.439,22.438l-22.439,0l0,-22.438Z" style="fill:#31c754;"/></g><g transform="matrix(0.0646601,0,0,0.0646601,-18.8544,-37.3113)"><text x="405.937px" y="1275.1px" style="font-family:'FiraCodeRoman-SemiBold', 'Fira Code', monospace;font-weight:300;font-size:175px;">promise</text><text x="405.937px" y="1450.1px" style="font-family:'FiraCodeRoman-SemiBold', 'Fira Code', monospace;font-weight:300;font-size:175px;fill:#00ab28;">&lt;watch&gt;</text></g></svg>